<?xml version="1.0" encoding="utf-8"?>
<!-- Generator: Adobe Illustrator 29.6.1, SVG Export Plug-In . SVG Version: 9.03 Build 0)  -->
<svg version="1.1" id="Laag_1" xmlns="http://www.w3.org/2000/svg" xmlns:xlink="http://www.w3.org/1999/xlink" x="0px" y="0px"
	 viewBox="0 0 90 45" enable-background="new 0 0 90 45" xml:space="preserve">
<g>
	<g>
		<path fill="#1D2C4F" d="M3.453,19.269l1.519-3.438c1.319,0.78,3.078,1.279,4.618,1.279c1.339,0,1.819-0.28,1.819-0.76
			c0-1.759-7.736-0.34-7.736-5.557c0-2.599,2.179-4.718,6.517-4.718c1.879,0,3.818,0.4,5.277,1.219l-1.419,3.418
			c-1.379-0.7-2.679-1.039-3.898-1.039c-1.379,0-1.819,0.4-1.819,0.88c0,1.679,7.736,0.28,7.736,5.437
			c0,2.559-2.179,4.718-6.517,4.718C7.211,20.709,4.852,20.129,3.453,19.269z"/>
		<path fill="#1D2C4F" d="M9.55,20.798c-2.296,0-4.707-0.57-6.144-1.453l-0.067-0.041l1.592-3.603l0.087,0.051
			C6.34,16.535,8.092,17.02,9.59,17.02c1.55,0,1.729-0.382,1.729-0.67c0-0.573-1.012-0.784-2.293-1.051
			c-2.297-0.478-5.443-1.133-5.443-4.507c0-2.92,2.593-4.808,6.607-4.808c1.989,0,3.929,0.449,5.321,1.231l0.07,0.039l-1.487,3.582
			l-0.086-0.044c-1.347-0.683-2.645-1.03-3.857-1.03c-0.789,0-1.729,0.137-1.729,0.79c0,0.536,0.993,0.734,2.249,0.985
			c2.316,0.462,5.487,1.095,5.487,4.452C16.157,18.911,13.563,20.798,9.55,20.798z M3.567,19.233
			c1.418,0.843,3.753,1.386,5.983,1.386c3.904,0,6.427-1.817,6.427-4.628c0-3.21-3.088-3.826-5.343-4.276
			c-1.337-0.267-2.394-0.478-2.394-1.161c0-0.442,0.331-0.969,1.909-0.969c1.215,0,2.51,0.338,3.852,1.006l1.351-3.255
			c-1.361-0.744-3.238-1.169-5.164-1.169c-3.904,0-6.427,1.817-6.427,4.628c0,3.228,3.063,3.865,5.3,4.331
			c1.361,0.283,2.436,0.507,2.436,1.226c0,0.579-0.607,0.849-1.909,0.849c-1.495,0-3.239-0.474-4.576-1.241L3.567,19.233z"/>
	</g>
	<g>
		<path fill="#1D2C4F" d="M28.511,16.721v3.594H16.83V6.298h11.322v3.594h-6.649v1.617h5.93v3.414h-5.93v1.797H28.511z"/>
		<path fill="#1D2C4F" d="M28.601,20.405H16.74V6.208h11.501v3.774h-6.649v1.438h5.93v3.594h-5.93v1.617h7.009V20.405z
			 M16.92,20.225h11.501v-3.414h-7.009v-1.977h5.93v-3.235h-5.93V9.802h6.649V6.388H16.92V20.225z"/>
	</g>
	<g>
		<path fill="#1D2C4F" d="M29.162,13.392c0-4.298,3.298-7.316,7.796-7.316c2.739,0,4.898,0.999,6.277,2.799l-2.979,2.659
			c-0.82-1.04-1.799-1.639-3.058-1.639c-1.959,0-3.278,1.359-3.278,3.498s1.319,3.498,3.278,3.498c1.259,0,2.239-0.6,3.058-1.639
			l2.979,2.659c-1.379,1.799-3.538,2.799-6.277,2.799C32.46,20.709,29.162,17.69,29.162,13.392z"/>
		<path fill="#1D2C4F" d="M36.958,20.798c-4.569,0-7.886-3.115-7.886-7.406s3.317-7.406,7.886-7.406c2.732,0,4.927,0.98,6.348,2.834
			l0.051,0.066l-3.112,2.778l-0.059-0.075c-0.851-1.08-1.829-1.605-2.988-1.605c-1.937,0-3.188,1.338-3.188,3.408
			s1.252,3.408,3.188,3.408c1.159,0,2.136-0.525,2.988-1.605l0.059-0.075l3.112,2.778l-0.051,0.066
			C41.884,19.818,39.689,20.798,36.958,20.798z M36.958,6.166c-4.465,0-7.706,3.039-7.706,7.227s3.241,7.227,7.706,7.227
			c2.641,0,4.767-0.932,6.155-2.698l-2.845-2.54c-0.874,1.076-1.879,1.599-3.069,1.599c-2.046,0-3.368-1.408-3.368-3.588
			s1.322-3.588,3.368-3.588c1.191,0,2.195,0.523,3.069,1.599l2.845-2.54C41.725,7.098,39.599,6.166,36.958,6.166z"/>
	</g>
	<g>
		<path fill="#1D2C4F" d="M43.606,14.174V6.477h4.852v7.556c0,2.139,0.826,2.939,2.156,2.939c1.33,0,2.156-0.8,2.156-2.939V6.477
			h4.493v7.696c0,4.198-2.523,6.617-6.829,6.617C46.13,20.79,43.606,18.371,43.606,14.174z"/>
		<path fill="#1D2C4F" d="M50.435,20.88c-4.397,0-6.919-2.444-6.919-6.707V6.388h5.032v7.646c0,1.917,0.676,2.849,2.067,2.849
			s2.067-0.932,2.067-2.849V6.388h4.672v7.786C57.354,18.436,54.832,20.88,50.435,20.88z M43.696,6.567v7.606
			c0,4.148,2.456,6.527,6.739,6.527c4.283,0,6.739-2.379,6.739-6.527V6.567h-4.313v7.466c0,2.038-0.735,3.028-2.246,3.028
			s-2.246-0.99-2.246-3.028V6.567H43.696z"/>
	</g>
	<g>
		<path fill="#1D2C4F" d="M64.796,16.9h-1.242v3.414h-4.672V6.298h6.672c3.861,0,6.316,2.042,6.316,5.286
			c0,2.022-0.95,3.544-2.613,4.405l2.91,4.325h-5.062L64.796,16.9z M65.25,10.072h-1.696v3.235h1.696
			c1.282,0,1.894-0.611,1.894-1.617S66.532,10.072,65.25,10.072z"/>
		<path fill="#1D2C4F" d="M72.335,20.405h-5.278l-2.309-3.414h-1.104v3.414h-4.852V6.208h6.762c3.891,0,6.405,2.11,6.405,5.376
			c0,1.969-0.913,3.541-2.573,4.438L72.335,20.405z M67.152,20.225h4.845l-2.872-4.269l0.09-0.046
			c1.678-0.869,2.565-2.364,2.565-4.325c0-3.205-2.386-5.197-6.226-5.197h-6.582v13.838h4.493v-3.414h1.379L67.152,20.225z
			 M65.25,13.396h-1.786V9.982h1.786c1.279,0,1.983,0.606,1.983,1.707S66.529,13.396,65.25,13.396z M63.644,13.216h1.606
			c1.18,0,1.804-0.528,1.804-1.528s-0.624-1.528-1.804-1.528h-1.606V13.216z"/>
	</g>
	<g>
		<path fill="#1D2C4F" d="M81.165,15.229v5.086h-4.672v-5.146l-5.227-8.871h4.93l2.831,4.846l2.851-4.846h4.514L81.165,15.229z"/>
		<path fill="#1D2C4F" d="M81.255,20.405h-4.852v-5.212l-5.294-8.985h5.138l2.78,4.758l2.799-4.758h4.722l-5.293,9.045V20.405z
			 M76.583,20.225h4.493v-5.021l0.012-0.021l5.147-8.796h-4.306l-2.903,4.934l-2.883-4.934h-4.721l5.159,8.756V20.225z"/>
	</g>
	<g>
		<path fill="#1D2C4F" d="M11.231,27.923v2.82h9.541v4.028h-9.541v4.834H3.714V23.895h18.504v4.028H11.231z"/>
		<path fill="#1D2C4F" d="M11.376,39.705H3.57V23.794h18.793v4.229H11.376v2.618h9.541v4.229h-9.541V39.705z M3.859,39.504h7.228
			V34.67h9.541v-3.827h-9.541v-3.021h10.987v-3.827H3.859V39.504z"/>
	</g>
	<g>
		<path fill="#1D2C4F" d="M23.664,23.895h7.517v11.681h10.119v4.028H23.664V23.895z"/>
		<path fill="#1D2C4F" d="M41.445,39.705H23.519V23.794h7.806v11.681h10.119V39.705z M23.808,39.504h17.348v-3.827H31.037V23.996
			h-7.228V39.504z"/>
	</g>
	<g>
		<path fill="#1D2C4F" d="M60.961,35.576v4.028H42.168V23.895h18.215v4.028H49.685v1.813h9.541v3.827h-9.541v2.014H60.961z"/>
		<path fill="#1D2C4F" d="M61.106,39.705H42.024V23.794h18.504v4.229H49.83v1.611h9.541v4.028H49.83v1.813h11.276V39.705z
			 M42.313,39.504h18.504v-3.827H49.541v-2.215h9.541v-3.625h-9.541v-2.014h10.698v-3.827H42.313V39.504z"/>
	</g>
	<g>
		<path fill="#1D2C4F" d="M77.021,39.604l-3.898-4.197l-3.801,4.197h-8.666l8.151-7.922l-7.861-7.787h8.538l3.834,3.95l3.737-3.95
			h8.183l-7.829,7.585l8.312,8.124H77.021z"/>
		<path fill="#1D2C4F" d="M86,39.705h-9.058l-3.818-4.11l-3.723,4.11h-9.028l8.255-8.023l-7.962-7.887h8.893l3.756,3.869
			l3.661-3.869h8.543l-7.933,7.686L86,39.705z M77.099,39.504h8.34l-8.209-8.023l7.725-7.484h-7.823l-3.814,4.03l-3.912-4.03h-8.182
			l7.76,7.687l-0.06,0.058l-7.987,7.763h8.305l3.88-4.283L77.099,39.504z"/>
	</g>
</g>
<path fill="#8D98B2" d="M86.184,4H3.816C3.366,4,3,3.634,3,3.184V2.816C3,2.366,3.366,2,3.816,2h82.367C86.634,2,87,2.366,87,2.816
	v0.367C87,3.634,86.634,4,86.184,4z"/>
<path fill="#8D98B2" d="M86.184,44H3.816C3.366,44,3,43.634,3,43.184v-0.367C3,42.366,3.366,42,3.816,42h82.367
	C86.634,42,87,42.366,87,42.816v0.367C87,43.634,86.634,44,86.184,44z"/>
<g>
</g>
<g>
</g>
<g>
</g>
<g>
</g>
<g>
</g>
<g>
</g>
<g>
</g>
<g>
</g>
<g>
</g>
<g>
</g>
<g>
</g>
</svg>
