<?xml version="1.0" encoding="utf-8"?>
<!-- Generator: Adobe Illustrator 29.6.1, SVG Export Plug-In . SVG Version: 9.03 Build 0)  -->
<svg version="1.1" id="Laag_1" xmlns="http://www.w3.org/2000/svg" xmlns:xlink="http://www.w3.org/1999/xlink" x="0px" y="0px"
	 viewBox="0 0 512 512" enable-background="new 0 0 512 512" xml:space="preserve">
<path fill="#8D98B2" d="M494.227,108.072H13.894c-3.188,0-5.773-2.584-5.773-5.773v-5.527c0-3.188,2.584-5.773,5.773-5.773h480.334
	c3.188,0,5.773,2.584,5.773,5.773v5.527C500,105.488,497.415,108.072,494.227,108.072z"/>
<path fill="#8D98B2" d="M499.167,433.014H18.833c-3.188,0-5.773-2.585-5.773-5.773v-5.527c0-3.188,2.584-5.773,5.773-5.773h480.334
	c3.188,0,5.773,2.584,5.773,5.773v5.527C504.939,430.43,502.355,433.014,499.167,433.014z"/>
<path fill="#1D2C4F" d="M15.371,377.05l29.076-65.808c25.252,14.924,58.92,24.486,88.381,24.486
	c25.633,0,34.817-5.354,34.817-14.537c0-33.67-148.067-6.503-148.067-106.363c0-49.739,41.704-90.294,124.728-90.294
	c35.965,0,73.078,7.652,101.007,23.338l-27.165,65.425c-26.399-13.389-51.269-19.895-74.606-19.895
	c-26.399,0-34.817,7.652-34.817,16.835c0,32.138,148.066,5.357,148.066,104.069c0,48.973-41.703,90.294-124.728,90.294
	C87.299,404.6,42.152,393.502,15.371,377.05z"/>
<path fill="#1D2C4F" d="M366.298,197.574v48.153h113.504v68.79H366.298v82.548h-89.428V128.783H497v68.79H366.298z"/>
<g>
</g>
<g>
</g>
<g>
</g>
<g>
</g>
<g>
</g>
<g>
</g>
<g>
</g>
<g>
</g>
<g>
</g>
<g>
</g>
<g>
</g>
</svg>
